<?xml version="1.0" encoding="UTF-8"?>
<svg id="Layer_1" data-name="Layer 1" xmlns="http://www.w3.org/2000/svg" viewBox="0 0 100 100">
  <defs>
    <style>
      .cls-1 {
        fill: #32ba00;
      }
    </style>
  </defs>
  <g>
    <path class="cls-1" d="M89.06,62.55s8.37-3.89,5.24-15.64c-3.13-11.75-19.95-13.41-19.95-13.41,0,0-1.06-.25-1.15,.25-.1,.5-.45,2.81-3.21,3.76,0,0,1.59-1.29,2.31-3.41,.26-.75-1.32-.49-1.97-.36-.13,.03-.25,.04-.38,.05-.15,.01-.41,.13-.63,.73-.32,.9-1.87,2.96-3.38,3.68,0,0,1.3-1.4,2.19-3.51,.27-.65-.97-.35-1.94,.07-.97,.42-1.96,2.49-2.44,2.81-.47,.32-.37-.55,.02-1.07,.4-.52,.4-.9-.7-.42-1.09,.47-1.14,.2-.65-.35,.5-.55,1.99-.97,1.92-1.24-.07-.27-1.04-1.19-2.04-1.24,0,0,2.22-.94,3.71,.15,.65,.47,2.39-.72,2.39-.72,0,0,.17-.57-.7-.65-.87-.07-1.74-.77-1.74-.77,0,0,1.54-.98,3.41,.4,.73,.54,1.87,.48,2.5,.4,.26-.03,.51-.04,.77-.04,.2,0,.36-.07-.09-.44-.77-.62-2.14-1.54-2.21-2.01,0,0,1.64-.14,3.66,2.01,.37,.4,.72,.6,1.79,.47s.82-.45,.45-1.22c-.37-.77-.65-2.24-5.15-3.53,0,0-.83-.15-.97,.57-.07,.37-2.01,.07-2.61,.2-.6,.12-2.31,.22-2.51,.77-.2,.55-.47,.82-1.14,.95s-1.84,.6-2.41,1.02c-.57,.42-.72,.39-.77,1.19-.02,.4-.45,.15-1.44,1.42-.99,1.27-.97,1.14-.95,1.64,.02,.5,.22,.6-.08,.88,0,0-2.4,2.16-2,2.96,0,0-.88,1.12-.4,1.52,.48,.4,2.96-.08,3.28-.28,.32-.2,.64,.03,.48,.43-.16,.41,.44,.97,1.76,.73,1.32-.24,1.68-.64,1.92-.16,.24,.48,.6,.92,1.88,.52s2.52-1.08,2.76-.84c.24,.24,.8,.56,1.64,.28,.84-.28,2.6-1.84,2.8-1.56,.2,.28,.6,.6,1.4,.08,.8-.52,1.92-1.72,2.4-2.56,.48-.84,.96-1.88,1.48-2.04,.33-.1,2.14,.37,3.18,.68,2.2,.66,4.29,1.71,6.06,3.18,2.45,2.02,4.14,4.78,5.04,7.81,1.36,4.56,.87,9.67-1.46,13.83"/>
    <path class="cls-1" d="M78.62,30.54c.3-.32,.69-1.56,.69-1.56-.11,.47,.06,.54,.28,.58,.21,.04,.41-.09,.39-.74-.02-.66,.9-1.25,.9-1.25-.17,.19-.39,.77-.26,1.09,.13,.32,.96,.49,1.16-.54,.19-1.03,.71-1.09,.71-1.09-.36,.39-.26,.88,1.22,.47,1.48-.41,2.61,.51,2.61,.51-1.37-.39-2.64,.3-3.17,.64s1.76,.86,1.76,.86c-.92,.26-2.87-.43-3.34-.24-.41,.17,.58,.92,.87,1.12-.44-.28-1.72-.72-2.03-.46-.32,.28,.86,.84,.64,.77-.21-.06-1.35-.26-1.41-.06-.05,.14,.4,.38,.66,.51-.31-.12-.9-.26-1.09,.39-.26,.9,3.51,1.09,3.84,.9,.32-.19-.21-.09,.86-.36s1.26-.24,1.26-.56,.9-.64,1.65-.88c.75-.24,1.2-.75,.88-.96-.32-.21,1.01-.43,1.22-.69,.21-.26-.26-.56,.32-.73,.58-.17,1.05-.51,1.05-.84s-.6-.24-.73-.47c-.13-.24-.41-.34-1.2-.49s-.43-.36-.86-.66c-.43-.3-1.69,.11-1.54-.19,.15-.3-1.2-.6-1.61-.47-.41,.13-.64,.24-1.16,.24s-.9,.21-1.5,.43c-.6,.21-.13,.39-1.2,.6s-.94,.64-1.16,.9c-.21,.26-.41,.3-.6,.58-.19,.28-.38,.45-.45,.75-.31,1.29,.34,1.91,.34,1.91Z"/>
    <path class="cls-1" d="M48.23,38.69c-.21-.15-.43-.28-.66-.39-.92-.45-1.98-.6-2.94-.29-1.23,.4-2.11,1.48-2.87,2.53-1.77,2.45-3.28,5.08-4.52,7.83-.25-1.7-.53-3.39-.82-5.08-.25-1.43-.46-2.97-1.25-4.23-.88-1.4-2.66-2.44-4.32-1.88-.82,.28-1.47,.89-2.06,1.52-1.85,1.97-3.4,4.23-4.56,6.67-.6-1.81-1.21-3.64-2.23-5.26-1.02-1.62-2.49-3.02-4.32-3.57-2.29-.69-4.83,.08-6.74,1.52-.99,.75-1.84,1.66-2.58,2.65-.37,.5-.72,1.02-1.05,1.55-.29,.47-.63,.96-.89,1.45-.17,.33-.25,.71-.42,1.05-.17,.34-.35,.67-.51,1.01-.35,.71-.62,1.52-.42,2.28,.19,.77,1.02,1.41,1.77,1.15,.49-.17,.79-.64,1.06-1.08,1.53-2.56,3.04-5.26,5.47-6.98,1.2-.85,2.76-1.43,4.13-.89,1.59,.63,2.28,2.49,2.66,4.16,1.02,4.44,1.19,9.08,.52,13.59-.17,1.16-.4,2.39,.04,3.48,.44,1.09,1.86,1.87,2.83,1.2,.7-.49,.83-1.46,.92-2.31,.47-4.67,1.44-9.28,2.87-13.75,.55-1.72,1.22-3.5,2.56-4.7,.34-.31,.75-.58,1.21-.59,1.11-.02,1.62,1.36,1.75,2.46,.63,5.29-.11,10.64-.07,15.96,0,.83,.04,1.69,.39,2.44s1.12,1.37,1.95,1.31c.7-.06,1.3-.59,1.63-1.21,.33-.62,.45-1.33,.57-2.03,1.11-6.09,3.34-11.97,6.54-17.26,.32-.53,.75-1.12,1.37-1.16,.98-.06,1.44,1.19,1.51,2.18,.42,5.4-1.08,10.81-.78,16.22,.07,1.22,.26,2.52,1.06,3.45,.49,.57,1.32,.96,2.01,.65,.93-.43,.96-1.72,.89-2.74-.28-3.96,.09-7.94,.63-11.87,.27-1.96,.58-3.95,.36-5.92-.23-1.97-1.07-3.96-2.69-5.11Z"/>
    <path class="cls-1" d="M53.02,47.69c.8,.66,1.75,.57,2.66,.65,1.54,.13,2.33-.71,2.19-2.29-.02-2.62-2.7-3.21-4.44-2.65-1.41,.46-2.12,2.88-.41,4.29Z"/>
    <path class="cls-1" d="M86.52,60.66c-.28,.07-.56,.14-.84,.19-.06,.01-.13,.02-.19,.03-1.06,.14-2.08-.09-2.93-.74-1.08-.82-1.46-2.04-1.4-3.34,.08-1.77,.25-3.54,.44-5.3,.03-.26,.38-.62,.64-.69,.88-.25,1.82-.32,2.69-.59,.43-.13,.85-.5,1.11-.88,.23-.33,.15-.77-.44-.8-.61-.03-1.22-.12-1.83-.1-1.38,.05-1.73-.37-1.61-1.75,.11-1.3,.64-2.66-.56-3.83-.7-.68-2-.55-2.49,.28-.74,1.24-.59,2.59-.69,3.91-.07,.96-.58,1.46-1.55,1.46-.64,0-1.29,.04-1.93,.12-.66,.08-1.28,.76-1.19,1.31,.11,.74,.69,.84,1.32,.84,.66,0,1.32,.01,1.99,.02,.54,0,.86,.28,.87,.83,.01,1.09-.07,2.18-.08,3.27-.02,1.93,.14,3.81-1.52,5.13-.52,.41-2.16,.49-2.64,.12-.74-.57-1.01-1.36-1.08-2.23-.07-.82-.1-1.64-.15-2.46-.05-.67,.08-1.53-.28-2.12-.2-.32-.54-.53-.9-.64-1.1-.34-2.38-.15-3.3,.56-.7,.54-1.55,2.12-2.48,2.22-.57,.06-.86-1.19-.99-1.59-.34-1.06-1.99-1.64-2.74-.68-.83,1.07-.42,2.58-.35,3.8,.08,1.49-.8,2.81-1.88,3.76-.57,.51-1.28,.93-2.12,.6-1.04-.41-1.49-1.28-1.54-2.32-.06-1.26,0-2.52,0-3.78,0-.64-.09-1.17-.76-1.57-.55-.33-1.03-.54-1.61-.29-.76,.33-1.42,.74-1.39,1.75,.05,1.48-.01,2.97,.06,4.46,.1,2.07,1.74,3.89,3.78,4.21,2.07,.32,4.01-.05,5.73-1.3,.41-.3,.74-.33,1.19-.08,.84,.46,2.02,.37,2.53-.52,.4-.7,1.83-5.66,3.14-4.84,.95,.59,.92,1.98,1.24,2.92,.48,1.4,1.69,2.57,3.17,2.82,1.48,.25,3.46,.21,4.61-.88,1.11-1.04,1.43-.73,2.35-.03,.53,.41,1,.82,1.75,.91,1.16,.14,2.29,.19,3.32-.04,4.1-.74,4.95-4.69,4.95-4.69-1.19,1.61-2.52,2.28-3.42,2.57Z"/>
  </g>
  <g>
    <rect x="5" y="69.8" width="36.46" height=".63"/>
    <g>
      <path d="M50.18,69.97c-.1-.09-.2-.17-.29-.23-.09-.06-.21-.12-.35-.17-.14-.05-.26-.1-.36-.13-.1-.03-.3-.09-.6-.17-.31-.08-.56-.19-.77-.32s-.32-.32-.32-.57,.09-.44,.26-.59,.42-.22,.74-.22,.62,.14,.89,.41c.27,.27,.53,.63,.78,1.09h.12l-.05-1.57h-.09c-.06,.1-.12,.16-.19,.16s-.26-.04-.56-.12c-.3-.08-.59-.12-.86-.12-.57,0-1.02,.17-1.35,.5-.33,.33-.49,.73-.49,1.19,0,.57,.16,.98,.48,1.25,.16,.14,.33,.24,.51,.33,.18,.08,.47,.18,.86,.29,.4,.11,.7,.24,.92,.39,.22,.15,.32,.37,.32,.65s-.1,.49-.3,.63c-.2,.14-.43,.21-.69,.21-.39,0-.77-.17-1.13-.51-.36-.34-.65-.73-.88-1.18h-.13l.08,1.85h.11c.07-.16,.14-.23,.21-.23,.04,0,.25,.04,.63,.12,.38,.08,.72,.12,1.02,.12,.57,0,1.03-.17,1.38-.51,.35-.34,.53-.79,.53-1.35,0-.34-.07-.64-.21-.89-.06-.11-.14-.21-.24-.3Z"/>
      <path d="M53.67,67.45h-.64l-1.99,5.35h-.37v.15h1.19v-.15h-.58l.6-1.68h1.54l.57,1.68h-.55v.15h2.55v-.15h-.36l-1.96-5.35Zm-1.71,3.5l.73-2.04,.68,2.04h-1.41Z"/>
      <path d="M59.51,72.37c-.26,.27-.61,.4-1.06,.4h-.28v-5.11h.83v-.17h-2.8v.17h.46v5.11h-.46v.17h4.13l.15-1.82h-.16c-.27,.56-.54,.98-.8,1.25Z"/>
      <path d="M63.56,67.41c-.84,0-1.49,.26-1.95,.77-.46,.51-.69,1.21-.69,2.1s.21,1.57,.64,2.04c.43,.47,1.08,.7,1.94,.7s1.52-.25,1.95-.74c.43-.49,.65-1.19,.65-2.08s-.21-1.58-.64-2.07-1.06-.73-1.9-.73Zm.94,3.13c0,.86-.06,1.46-.18,1.8-.12,.35-.39,.52-.8,.52-.34,0-.59-.13-.75-.38-.07-.11-.13-.3-.18-.57-.05-.27-.07-.72-.07-1.35v-.56c0-.59,.02-1.03,.05-1.33,.03-.21,.06-.37,.11-.48s.1-.22,.18-.33c.07-.1,.16-.18,.28-.22,.11-.04,.25-.06,.4-.06s.29,.02,.4,.06c.19,.07,.34,.24,.44,.53,.09,.25,.14,.85,.14,1.8v.58Z"/>
      <polygon points="70.38 67.64 70.81 67.64 70.81 71.4 68.77 67.49 66.62 67.49 66.62 67.64 67.05 67.64 67.05 72.8 66.62 72.8 66.62 72.95 67.69 72.95 67.69 72.8 67.26 72.8 67.26 67.91 69.93 72.95 71.02 72.95 71.02 67.64 71.45 67.64 71.45 67.49 70.38 67.49 70.38 67.64"/>
      <path d="M77.49,69.83h.62c-.01,.39-.05,.77-.13,1.14-.24-.23-.65-.53-1.22-.9-.28-.17-.46-.29-.57-.36,.84-.29,1.25-.71,1.25-1.26,0-.32-.13-.57-.39-.76s-.64-.28-1.16-.28-.94,.13-1.29,.38c-.35,.25-.52,.62-.52,1.11s.23,.94,.69,1.36c-.44,.1-.76,.25-.94,.47s-.28,.49-.28,.84c0,.5,.2,.87,.61,1.11,.41,.23,.96,.35,1.65,.35s1.23-.23,1.63-.68c.27,.37,.41,.73,.41,1.09s-.07,.66-.21,.9c-.14,.24-.33,.37-.59,.37-.28,0-.37-.14-.28-.41h.27c.03-.11,.05-.2,.05-.28,0-.37-.21-.56-.62-.56-.19,0-.34,.06-.46,.18s-.18,.29-.18,.51,.09,.4,.28,.54,.45,.21,.79,.21c.5,0,.95-.22,1.35-.66,.39-.44,.59-.94,.59-1.5,0-.35-.06-.64-.17-.86s-.28-.47-.51-.72c.09-.39,.14-.83,.15-1.32h.55v-.16h-1.35v.16Zm-2.14-2.08c.14-.12,.31-.18,.51-.18,.45,0,.68,.31,.68,.92,0,.31-.03,.55-.08,.71s-.19,.3-.41,.41c-.35-.24-.59-.45-.72-.62-.12-.17-.19-.39-.19-.65s.07-.46,.21-.58Zm.65,5.07c-.42,0-.72-.11-.93-.33-.2-.22-.3-.59-.3-1.1s.04-.85,.12-1.01c.2,.18,.67,.51,1.42,1,.43,.29,.77,.56,1,.81-.32,.43-.76,.64-1.31,.64Z"/>
      <path d="M84.75,69.97c-.1-.09-.2-.17-.29-.23s-.21-.12-.35-.17c-.14-.05-.26-.1-.36-.13-.1-.03-.3-.09-.6-.17-.31-.08-.56-.19-.77-.32s-.32-.32-.32-.57,.09-.44,.26-.59,.42-.22,.74-.22,.62,.14,.89,.41c.27,.27,.53,.63,.78,1.09h.12l-.05-1.57h-.09c-.06,.1-.12,.16-.19,.16s-.26-.04-.56-.12c-.3-.08-.59-.12-.86-.12-.57,0-1.02,.17-1.35,.5-.33,.33-.49,.73-.49,1.19,0,.57,.16,.98,.48,1.25,.16,.14,.33,.24,.51,.33,.18,.08,.47,.18,.86,.29,.4,.11,.7,.24,.92,.39,.22,.15,.32,.37,.32,.65s-.1,.49-.3,.63c-.2,.14-.43,.21-.69,.21-.39,0-.77-.17-1.13-.51-.36-.34-.65-.73-.88-1.18h-.13l.08,1.85h.11c.07-.16,.14-.23,.21-.23,.04,0,.25,.04,.63,.12,.38,.08,.72,.12,1.02,.12,.57,0,1.03-.17,1.38-.51,.35-.34,.53-.79,.53-1.35,0-.34-.07-.64-.21-.89-.06-.11-.14-.21-.24-.3Z"/>
      <path d="M87.72,70.71c.78,0,1.39-.11,1.83-.33,.47-.24,.7-.69,.7-1.33,0-.58-.19-.98-.58-1.21-.38-.23-.97-.34-1.75-.34h-2.29v.15h.51v5.15h-.51v.15h3v-.15h-.97v-2.09h.06Zm-.06-3.07h.21c.3,0,.5,.09,.61,.26,.11,.18,.17,.49,.17,.93v.37c0,.48-.06,.82-.18,1.04-.12,.21-.33,.32-.65,.32h-.16v-2.92Z"/>
      <path d="M94.6,72.8l-1.96-5.35h-.64l-1.99,5.35h-.37v.15h1.19v-.15h-.58l.6-1.68h1.54l.57,1.68h-.55v.15h2.55v-.15h-.36Zm-3.68-1.85l.73-2.04,.68,2.04h-1.41Z"/>
    </g>
  </g>
</svg>